<svg height="407" viewBox="0 0 398 407" width="398" xmlns="http://www.w3.org/2000/svg" xmlns:xlink="http://www.w3.org/1999/xlink"><linearGradient id="a" x1="50%" x2="50%" y1="50%" y2="0%"><stop offset="0" stop-color="#35fcd1" stop-opacity="0"/><stop offset="1" stop-color="#35fcd1" stop-opacity=".2"/></linearGradient><linearGradient id="b" x1="81.94802%" x2="19.024103%" y1="49.76027%" y2="49.76027%"><stop offset="0" stop-color="#35fcd1" stop-opacity=".5"/><stop offset=".216570844" stop-color="#35fcd1" stop-opacity=".6"/><stop offset=".795165955" stop-color="#35fcd1" stop-opacity=".6"/><stop offset="1" stop-color="#35fcd1" stop-opacity=".5"/></linearGradient><linearGradient id="c" x1="50%" x2="50%" y1="94.611353%" y2="12.950395%"><stop offset="0" stop-color="#14c4ff"/><stop offset="1" stop-color="#35fcd1"/></linearGradient><mask id="d" fill="#fff"><path d="m176.846357 341.886122c14.743464 23.967166 38.687672 23.992177 53.446521 0l161.544331-198.405412s0-143.34899837-188.837209-143.48061958c-188.8372093-.13162122-188.8372093 143.48061958-188.8372093 143.48061958z" fill="#fff" fill-rule="evenodd"/></mask><g fill="none" fill-rule="evenodd" transform="translate(-4 -18)"><ellipse cx="203" cy="226.666667" fill="url(#a)" fill-rule="evenodd" mask="url(#d)" rx="141.627907" ry="141.666667"/><path d="m203 368.333333c78.218933 0 141.627907-63.426327 141.627907-141.666666 0-78.24034-63.408974-141.666667-141.627907-141.666667s-141.627907 63.426327-141.627907 141.666667c0 78.240339 63.408974 141.666666 141.627907 141.666666zm0 66.111111c-114.721102 0-207.72093023-93.025279-207.72093023-207.777777s92.99982823-207.7777781 207.72093023-207.7777781 207.72093 93.0252801 207.72093 207.7777781-92.999828 207.777777-207.72093 207.777777z" fill="url(#b)" fill-rule="nonzero" mask="url(#d)"/><g fill-rule="evenodd"><path d="m167.3371 404.269029-156.1214113-220.165741c-9.08674104-12.819323-20.87905985-43.180386 44.431139-103.8298335-21.8601563 42.6968355-5.955548 60.2378025 12.0557458 88.8829775 81.2263745 116.083189 133.5228185 190.108519 135.3000545 192.623858 1.833169-2.594513 54.116428-76.601803 135.297-192.619534 18.011294-28.645176 33.915902-46.186143 12.055746-88.8829782 65.310199 60.6494472 53.51788 91.0105102 44.431139 103.8298332l-156.121412 220.165741c-9.924026 14.000541-22.805885 20.890008-35.663372 20.716848-12.825634.134229-25.765457-6.755694-35.664629-20.721171z" fill="url(#c)"/><path d="m184.534976 199.248649c1.926219-17.092392 10.195622-85.915316 18.465024-85.915316s16.538805 68.822924 18.465024 85.915316c8.796942 5.93931 14.581488 16.002952 14.581488 27.418018 0 18.256079-14.795428 33.055555-33.046512 33.055555s-33.046512-14.799476-33.046512-33.055555c0-11.415066 5.784546-21.478708 14.581488-27.418018zm18.465024 41.584684c7.821893 0 14.162791-6.342632 14.162791-14.166666s-6.340898-14.166667-14.162791-14.166667-14.162791 6.342633-14.162791 14.166667 6.340898 14.166666 14.162791 14.166666z" fill="#fff"/></g></g></svg>